<?xml version="1.0" encoding="iso-8859-1"?>
<!-- Generator: Adobe Illustrator 16.0.0, SVG Export Plug-In . SVG Version: 6.00 Build 0)  -->
<!DOCTYPE svg PUBLIC "-//W3C//DTD SVG 1.1//EN" "http://www.w3.org/Graphics/SVG/1.1/DTD/svg11.dtd">
<svg version="1.1" id="Capa_1" xmlns="http://www.w3.org/2000/svg" xmlns:xlink="http://www.w3.org/1999/xlink" x="0px" y="0px"
	 width="422.097px" height="422.097px" viewBox="0 0 422.097 422.097" style="enable-background:new 0 0 422.097 422.097;"
	 xml:space="preserve">
<g>
	<g>
		<path d="M260.512,178.992c32.487-21.778,72.919-48.881,72.919-103.243C333.431,33.982,299.452,0,257.684,0
			c-17.171,0-33.385,5.631-46.636,16.038C197.8,5.632,181.584,0,164.414,0c-41.768,0-75.749,33.981-75.749,75.749
			c0,54.544,40.135,81.503,72.386,103.164c18.123,12.175,35.244,23.673,39.502,36.633c1.492,4.541,5.729,7.597,10.491,7.597
			c0.075,0,0.151,0,0.223-0.001c4.853-0.099,9.075-3.351,10.404-8.018C225.229,202.642,242.366,191.154,260.512,178.992z
			 M165.894,33.2c-21.977,6.309-36.74,25.061-36.74,46.66c0,7.418,1.726,14.542,5.136,21.172c0.873,1.703,0.489,3.782-0.938,5.058
			c-0.793,0.71-1.796,1.071-2.805,1.071c-0.807,0-1.617-0.231-2.324-0.701c-12.78-8.477-20.409-22.361-20.409-37.137
			c0-24.973,21.417-45.289,47.741-45.289c3.363,0,6.732,0.336,10.015,1.001c1.897,0.384,3.29,2.018,3.367,3.954
			C169.013,30.926,167.758,32.665,165.894,33.2z"/>
		<path d="M178.537,358.348c-1.589-3.889-3.367-7.736-5.286-11.441c-12.563-24.272-29.815-40.471-46.504-56.137
			c-4.703-4.412-10.692-11.316-17.034-18.625c-9.258-10.666-18.832-21.695-25.265-25.902c-5.829-3.81-10.592-3.916-14.16-0.312
			c-5.202,5.257-3.667,15.048,4.978,31.75c5.777,11.164,14.154,24.312,23.024,38.231c1.425,2.236,2.872,4.511,4.329,6.806
			c-15.709-17.183-27.246-32.808-34.344-46.521c-8.152-15.748-9.811-27.916-4.667-34.26c3.632-4.482,10.545-5.596,19.465-3.136
			l1.322,0.363l-0.319-1.335c-0.165-0.692-16.648-69.361-20.13-82.358c-0.766-2.867-1.833-5.63-3.17-8.212
			c-4.801-9.276-12.388-14.907-18.042-13.39c-2.729,0.734-7.223,3.835-6.631,16.398l8.583,108.402
			c0.44,3.54,0.749,7.247,1.077,11.176c1.001,12.01,2.038,24.43,6.953,33.924c2.044,3.95,4.413,7.52,7.24,10.906
			c5.091,6.102,19.25,20.835,34.242,36.432c14.593,15.183,29.684,30.883,35.195,37.438c4.323,5.145,8.064,10.812,11.44,17.336
			c2.719,5.252,5,10.672,7.038,16.215h52.745l-0.792-2.692C193.489,397.871,186.524,377.898,178.537,358.348z"/>
		<path d="M379.364,133.87c-5.654-1.517-13.241,4.114-18.042,13.39c-1.338,2.583-2.405,5.346-3.172,8.212
			c-3.48,12.997-19.965,81.667-20.13,82.358l-0.318,1.335l1.321-0.363c8.92-2.46,15.833-1.347,19.466,3.136
			c5.143,6.344,3.484,18.512-4.667,34.26c-7.1,13.713-18.636,29.338-34.345,46.521c1.458-2.294,2.904-4.569,4.329-6.806
			c8.87-13.92,17.247-27.067,23.024-38.231c8.645-16.7,10.18-26.493,4.978-31.75c-3.567-3.604-8.332-3.498-14.16,0.312
			c-6.433,4.207-16.007,15.236-25.265,25.902c-6.342,7.309-12.332,14.213-17.034,18.625c-16.688,15.666-33.941,31.863-46.504,56.137
			c-1.919,3.705-3.697,7.554-5.286,11.441c-7.987,19.55-14.952,39.522-21.288,61.057l-0.792,2.692h52.745
			c2.038-5.543,4.319-10.963,7.038-16.215c3.376-6.522,7.117-12.191,11.44-17.336c5.511-6.556,20.603-22.256,35.194-37.438
			c14.992-15.597,29.151-30.332,34.242-36.432c2.827-3.387,5.196-6.956,7.24-10.907c4.915-9.493,5.952-21.913,6.953-33.923
			c0.328-3.93,0.637-7.636,1.077-11.176l8.583-108.402C386.588,137.705,382.093,134.604,379.364,133.87z"/>
	</g>
</g>
<g>
</g>
<g>
</g>
<g>
</g>
<g>
</g>
<g>
</g>
<g>
</g>
<g>
</g>
<g>
</g>
<g>
</g>
<g>
</g>
<g>
</g>
<g>
</g>
<g>
</g>
<g>
</g>
<g>
</g>
</svg>
