<?xml version="1.0" encoding="UTF-8" standalone="no"?>
<!-- Created with Inkscape (http://www.inkscape.org/) -->

<svg
   xmlns:dc="http://purl.org/dc/elements/1.1/"
   xmlns:cc="http://creativecommons.org/ns#"
   xmlns:rdf="http://www.w3.org/1999/02/22-rdf-syntax-ns#"
   xmlns:svg="http://www.w3.org/2000/svg"
   xmlns="http://www.w3.org/2000/svg"
   version="1.1"
   width="85"
   height="85"
   id="svg3303">
  <defs
     id="defs3305" />
  <metadata
     id="metadata3308">
    <rdf:RDF>
      <cc:Work
         rdf:about="">
        <dc:format>image/svg+xml</dc:format>
        <dc:type
           rdf:resource="http://purl.org/dc/dcmitype/StillImage" />
        <dc:title></dc:title>
      </cc:Work>
    </rdf:RDF>
  </metadata>
  <g
     transform="translate(-182.0161,-130.95648)"
     id="layer1">
    <g
       transform="translate(0,-27.106383)"
       id="text3311"
       style="font-size:40px;font-style:normal;font-weight:normal;line-height:125%;letter-spacing:0px;word-spacing:0px;fill:#000000;fill-opacity:1;stroke:none;font-family:Sans">
      <path
         d="m 193.8325,215.91742 c -3.6849,0 -6.57552,-0.95052 -8.67187,-2.85156 -2.09636,-1.91406 -3.14453,-4.62239 -3.14453,-8.125 0,-2.68228 0.40364,-5.18228 1.21094,-7.5 0.80728,-2.31769 1.96614,-4.34894 3.47656,-6.09375 1.49739,-1.71873 3.33983,-3.07289 5.52734,-4.0625 2.18749,-1.00258 4.62889,-1.50388 7.32422,-1.50391 1.67967,3e-5 3.26821,0.20836 4.76563,0.625 1.49736,0.40368 3.03382,1.04821 4.60937,1.93359 l -0.87891,4.375 -0.29296,0 c -0.42972,-0.42966 -0.86592,-0.82679 -1.3086,-1.1914 -0.42971,-0.37758 -1.08075,-0.78774 -1.95312,-1.23047 -0.71617,-0.37758 -1.56904,-0.69008 -2.5586,-0.9375 -0.9896,-0.26039 -2.08335,-0.3906 -3.28125,-0.39063 -1.82293,3e-5 -3.49611,0.38415 -5.01953,1.15235 -1.52345,0.75523 -2.84506,1.81643 -3.96484,3.18359 -1.09376,1.32815 -1.95314,2.94273 -2.57813,4.84375 -0.625,1.90106 -0.9375,3.9258 -0.9375,6.07422 0,2.6823 0.69661,4.77214 2.08985,6.26953 1.39322,1.48438 3.40493,2.22657 6.03515,2.22656 1.23697,1e-5 2.40884,-0.13671 3.51563,-0.41015 1.11977,-0.28646 2.13539,-0.64453 3.04687,-1.07422 0.84633,-0.40364 1.60805,-0.82682 2.28516,-1.26953 0.67706,-0.4427 1.25648,-0.85286 1.73828,-1.23047 l 0.27344,0 -0.91797,4.49219 c -1.36721,0.6901 -2.94273,1.3151 -4.72656,1.875 -1.77085,0.54687 -3.65887,0.82031 -5.66407,0.82031"
         id="path3373"
         style="font-style:italic;font-variant:normal;font-stretch:normal;font-family:Verdana;-inkscape-font-specification:Verdana Italic" />
      <path
         d="m 221.80125,215.91742 c -3.6849,0 -6.57552,-0.95052 -8.67187,-2.85156 -2.09636,-1.91406 -3.14453,-4.62239 -3.14453,-8.125 0,-2.68228 0.40364,-5.18228 1.21094,-7.5 0.80728,-2.31769 1.96614,-4.34894 3.47656,-6.09375 1.49739,-1.71873 3.33983,-3.07289 5.52734,-4.0625 2.18749,-1.00258 4.62889,-1.50388 7.32422,-1.50391 1.67967,3e-5 3.26821,0.20836 4.76563,0.625 1.49736,0.40368 3.03382,1.04821 4.60937,1.93359 l -0.87891,4.375 -0.29296,0 c -0.42972,-0.42966 -0.86592,-0.82679 -1.3086,-1.1914 -0.42971,-0.37758 -1.08075,-0.78774 -1.95312,-1.23047 -0.71617,-0.37758 -1.56904,-0.69008 -2.5586,-0.9375 -0.9896,-0.26039 -2.08335,-0.3906 -3.28125,-0.39063 -1.82293,3e-5 -3.49611,0.38415 -5.01953,1.15235 -1.52345,0.75523 -2.84506,1.81643 -3.96484,3.18359 -1.09376,1.32815 -1.95314,2.94273 -2.57813,4.84375 -0.625,1.90106 -0.9375,3.9258 -0.9375,6.07422 0,2.6823 0.69661,4.77214 2.08985,6.26953 1.39322,1.48438 3.40493,2.22657 6.03515,2.22656 1.23697,1e-5 2.40884,-0.13671 3.51563,-0.41015 1.11977,-0.28646 2.13539,-0.64453 3.04687,-1.07422 0.84633,-0.40364 1.60805,-0.82682 2.28516,-1.26953 0.67706,-0.4427 1.25648,-0.85286 1.73828,-1.23047 l 0.27344,0 -0.91797,4.49219 c -1.36721,0.6901 -2.94273,1.3151 -4.72656,1.875 -1.77085,0.54687 -3.65887,0.82031 -5.66407,0.82031"
         id="path3375"
         style="font-style:italic;font-variant:normal;font-stretch:normal;font-family:Verdana;-inkscape-font-specification:Verdana Italic" />
      <path
         d="m 250.72704,215.95648 c -4.01043,0 -7.14194,-0.98958 -9.39454,-2.96875 -2.2526,-1.97916 -3.3789,-4.79166 -3.3789,-8.4375 0,-2.68228 0.41015,-5.16274 1.23047,-7.4414 0.83333,-2.27863 2.03775,-4.2643 3.61328,-5.95704 1.56249,-1.67966 3.47655,-2.99476 5.74219,-3.94531 2.27863,-0.95049 4.83722,-1.42575 7.67578,-1.42578 1.7057,3e-5 3.40492,0.20836 5.09765,0.625 1.7057,0.40368 3.44398,1.06774 5.21485,1.99219 l -0.87891,4.41406 -0.35156,0 c -1.44534,-1.35414 -3.02086,-2.3307 -4.72656,-2.92969 -1.69274,-0.61195 -3.51565,-0.91794 -5.46875,-0.91797 -2.14846,3e-5 -4.02997,0.42321 -5.64454,1.26954 -1.61459,0.84637 -2.97527,1.97268 -4.08203,3.3789 -1.08074,1.38023 -1.90105,2.9883 -2.46093,4.82422 -0.54689,1.83595 -0.82032,3.68491 -0.82032,5.54688 0,2.79948 0.76171,4.96094 2.28516,6.48437 1.53645,1.52344 3.80207,2.28516 6.79687,2.28516 1.31509,0 2.54556,-0.11719 3.69141,-0.35157 1.15883,-0.24739 2.24607,-0.55989 3.26172,-0.9375 l 1.64062,-7.4414 -7.7539,0 0.74219,-3.26172 11.64062,0 -2.89062,12.48047 c -0.8594,0.35156 -1.63414,0.67057 -2.32422,0.95703 -0.69013,0.27344 -1.55602,0.5599 -2.59766,0.85937 -0.89846,0.26042 -1.82945,0.47526 -2.79297,0.64454 -0.95054,0.16927 -1.97267,0.2539 -3.0664,0.2539"
         id="path3377"
         style="font-style:italic;font-variant:normal;font-stretch:normal;font-family:Verdana;-inkscape-font-specification:Verdana Italic" />
    </g>
  </g>
</svg>
