<?xml version="1.0" encoding="iso-8859-1"?>
<!-- Generator: Adobe Illustrator 16.0.0, SVG Export Plug-In . SVG Version: 6.00 Build 0)  -->
<!DOCTYPE svg PUBLIC "-//W3C//DTD SVG 1.1//EN" "http://www.w3.org/Graphics/SVG/1.1/DTD/svg11.dtd">
<svg version="1.1" id="Capa_1" xmlns="http://www.w3.org/2000/svg" xmlns:xlink="http://www.w3.org/1999/xlink" x="0px" y="0px"
	 width="454.183px" height="454.183px" viewBox="0 0 454.183 454.183" style="enable-background:new 0 0 454.183 454.183;"
	 xml:space="preserve">
<g>
	<g>
		<path d="M114.166,276.635c-2.334,43.284-4.727,112.757,0.453,157.343c2.499,21.544,23.692,26.542,36.803,9.286
			c15.13-19.913,35.548-52.578,58.478-104.795c8.714-19.841,21.335-19.832,30.152-0.027c23.688,53.21,45.448,86.135,61.599,105.932
			c13.701,16.804,35.397,11.161,37.906-10.379c5.173-44.595,2.772-114.067,0.448-157.359c-1.162-21.652,6.849-54.203,14.551-74.466
			c20.094-52.794,19.536-106.01,19.076-118.794c0.031-0.974,0.144-1.927,0.144-2.909C373.774,36.022,337.744,0,293.31,0
			c-27.375,0-51.531,13.711-66.076,34.61C212.694,13.703,188.538,0,161.157,0c-44.434,0-80.465,36.022-80.465,80.465
			c0,0-4.105,61.144,18.927,121.704C107.319,222.424,115.32,254.982,114.166,276.635z M127.861,53.373
			c13.072-14.148,32.188-21.319,56.839-21.319c4.332,0,7.851,3.514,7.851,7.848c0,4.332-3.519,7.851-7.851,7.851
			c-20.089,0-35.327,5.47-45.296,16.272c-15.34,16.609-13.621,40.429-13.605,40.675c0.353,4.316-2.875,8.099-7.198,8.444
			c-0.216,0.016-0.427,0.026-0.637,0.026c-4.052,0-7.49-3.12-7.821-7.225C110.042,104.684,107.922,74.969,127.861,53.373z"/>
	</g>
</g>
<g>
</g>
<g>
</g>
<g>
</g>
<g>
</g>
<g>
</g>
<g>
</g>
<g>
</g>
<g>
</g>
<g>
</g>
<g>
</g>
<g>
</g>
<g>
</g>
<g>
</g>
<g>
</g>
<g>
</g>
</svg>
