<?xml version="1.0" encoding="UTF-8" standalone="no"?>
<!-- Created with Inkscape (http://www.inkscape.org/) -->

<svg
   xmlns:dc="http://purl.org/dc/elements/1.1/"
   xmlns:cc="http://creativecommons.org/ns#"
   xmlns:rdf="http://www.w3.org/1999/02/22-rdf-syntax-ns#"
   xmlns:svg="http://www.w3.org/2000/svg"
   xmlns="http://www.w3.org/2000/svg"
   version="1.1"
   width="138"
   height="138"
   id="svg3072">
  <metadata
     id="metadata3078">
    <rdf:RDF>
      <cc:Work
         rdf:about="">
        <dc:format>image/svg+xml</dc:format>
        <dc:type
           rdf:resource="http://purl.org/dc/dcmitype/StillImage" />
        <dc:title></dc:title>
      </cc:Work>
    </rdf:RDF>
  </metadata>
  <defs
     id="defs3076" />
  <path
     d="m 67.34375,4.28125 c -0.76914,0.6148821 -2.441746,1.5160682 -3.0625,2.03125 -1.10622,0.918084 -1.23676,1.721209 -0.46875,3.15625 0.76387,1.427312 0.66083,2.307915 -0.4375,3.40625 -0.81202,0.812015 -1.75743,1.46875 -2.09375,1.46875 -0.8897,0 -8.53125,8.172724 -8.53125,9.125 0,0.443217 -0.566765,0.586673 -1.28125,0.3125 C 50.109444,23.259635 45.75,29.944136 45.75,32.5625 c 0,3.665756 5.587328,11.958479 6.84375,10.15625 0.579538,-0.831298 1.523597,-0.953384 3.78125,-0.5 0.342344,0.06875 0.112572,0.730645 -0.5,1.46875 -0.612573,0.738105 -0.817699,1.619801 -0.46875,1.96875 0.348949,0.348948 -0.09628,0.93446 -1,1.28125 -1.836716,0.704814 -2.284874,4.40625 -0.53125,4.40625 0.777284,0 0.734015,0.46495 -0.125,1.5 -0.682254,0.82207 -1.007172,2.39707 -0.71875,3.5 0.288423,1.102929 0.12351,2 -0.375,2 -1.437344,0 -1.041747,2.642658 0.59375,4 0.818944,0.679663 1.281175,1.564363 1.03125,1.96875 -0.249925,0.404387 0.428843,1.691706 1.53125,2.875 l 2.03125,2.15625 -2.59375,0 c -2.624358,0 -4.830214,3.046177 -2.71875,3.75 0.781818,0.260606 0.842732,1.15161 0.1875,2.875 -0.622985,1.638584 -0.624692,2.280394 0.03125,1.875 0.548337,-0.338891 1,-0.144959 1,0.4375 0,0.582459 -0.675,1.0625 -1.5,1.0625 -1.98367,0 -1.90472,1.676612 0.125,2.8125 1.203998,0.673791 1.370044,1.366114 0.65625,2.78125 -1.213769,2.406366 -0.115408,6.90625 1.6875,6.90625 0.752927,0 2.159944,1.39755 3.125,3.125 1.74929,3.13123 1.753536,3.149748 -1.15625,5.9375 -1.605277,1.53796 -2.9375,3.68467 -2.9375,4.75 0,1.76685 -0.533662,1.8811 -6.03125,1.34375 -6.420968,-0.62759 -11.141439,0.48086 -10.71875,2.53125 0.141527,0.68653 -0.7625,1.40494 -2,1.59375 -1.539046,0.23482 -2.2477,1.03978 -2.25,2.53125 -0.0037,2.36514 -10.316234,14.06141 -13.25,15.03125 -0.9625,0.31819 -1.75,1.34039 -1.75,2.25 0,1.38049 0.268526,1.4489 1.5625,0.375 1.215928,-1.00913 4.665995,-1.19331 6.1875,-0.0312 0.02745,-0.10015 0.0624,-0.18515 0.09375,-0.28125 l 0,-0.125 0.03125,0 c 0.303336,-0.86796 0.753348,-1.53125 1.09375,-1.53125 0.401697,0 1.762939,-0.9 3.03125,-2 2.755362,-2.38971 7.386191,-2.56629 11.46875,-0.4375 2.734708,1.42598 3.074574,1.41999 4.25,-0.1875 0.702676,-0.96096 1.28125,-2.53713 1.28125,-3.46875 0,-1.91803 3.218332,-4.28875 7.125,-5.25 1.86409,-0.45866 3.392148,-0.0239 5.25,1.4375 1.45141,1.14168 2.625,1.54431 2.625,0.90625 0,-0.77199 1.04529,-0.93234 3.15625,-0.46875 2.48036,0.54478 3.01914,0.38981 2.59375,-0.71875 -0.79766,-2.07862 3.1345,-2.11698 7.03125,-0.0625 2.82278,1.48825 3.4233,1.54901 4.1875,0.3125 0.59114,-0.95648 0.39945,-1.805 -0.59375,-2.53125 -1.21893,-0.89126 -1.02432,-1.0914 1.0625,-1 1.40818,0.0617 2.7883,0.3508 3.09375,0.65625 0.30544,0.30544 2.31696,0.10868 4.46875,-0.4375 2.64467,-0.67128 4.88307,-0.64278 6.90625,0.0625 2.41101,0.84048 3.779169,0.68113 7,-0.875 1.88744,-0.91191 3.77636,-1.64276 4.65625,-1.84375 l 0,-0.0312 0.125,0 c 0.0876,-0.0161 0.22479,-0.0625 0.28125,-0.0625 0.57657,0 1.03125,-0.48389 1.03125,-1.0625 0,-0.57861 1.31372,-1.50734 2.90625,-2.0625 2.15358,-0.75074 3.01148,-1.76736 3.34375,-4.03125 0.4338,-2.95568 0.3392,-3.05792 -2.90625,-2.53125 -2.01831,0.32752 -3.34375,0.13634 -3.34375,-0.5 0,-0.57959 -0.89924,-0.81911 -2,-0.53125 -1.10076,0.28785 -1.74572,0.12371 -1.4375,-0.375 0.30822,-0.49871 -0.03,-0.9452 -0.75,-1 -0.71996,-0.0548 -0.1875,-0.43307 1.1875,-0.8125 1.73614,-0.479082 2.59643,-1.49955 2.8125,-3.34375 0.19535,-1.66739 0.79091,-2.46433 1.59375,-2.15625 0.70326,0.26986 1.85704,-0.21247 2.5625,-1.0625 0.70549,-0.85003 0.96443,-1.53125 0.59375,-1.53125 -0.37068,0 0.47166,-1.074434 1.875,-2.375 1.40334,-1.300569 2.5625,-3.295528 2.5625,-4.4375 0,-1.141971 0.45,-2.347581 1,-2.6875 2.07846,-1.28456 1.06295,-7.394001 -1.75,-10.53125 -2.26254,-2.523391 -3.73329,-3.181146 -8.375,-3.65625 -5.13561,-0.525655 -5.72874,-0.375252 -6.34375,1.5625 -0.781891,2.463492 -2.10075,2.711745 -4.0625,0.75 -1.17961,-1.179611 -1.07265,-1.648177 0.59375,-3.15625 3.4231,-3.097865 2.20171,-7.638517 -3.46875,-12.96875 -1.75531,-1.65 -2.50971,-2.490732 -1.65625,-1.875 3.01993,2.178739 4.03166,0.436521 1.875,-3.21875 -1.12303,-1.903399 -1.7845,-4.349581 -1.5,-5.4375 C 92.347,43.224581 92.14565,42.071781 91.625,41.75 91.10435,41.42822 89.61752,39.473535 88.3125,37.40625 86.98808,35.30822 84.45624,33.040727 82.59375,32.28125 80.75856,31.532902 78.69555,30.225634 78.03125,29.375 76.36244,27.238123 72.75,15.580392 72.75,12.34375 c 0,-1.541461 -1.04978,-3.637583 -2.5,-5 -1.277712,-1.2003479 -2.324886,-2.5175529 -2.46875,-3.0625 l -0.4375,0 z m -41.84375,127 c -0.0063,0.023 -0.0252,0.0394 -0.03125,0.0625 0.03233,-0.001 0.06144,0.001 0.09375,0 -0.02362,-0.0195 -0.03785,-0.0437 -0.0625,-0.0625 z m 79.8125,-9.71875 c -0.13712,0.0515 -0.26785,0.10526 -0.40625,0.15625 l 0.40625,0 0,-0.15625 z"
     id="path3082"
     style="fill:#000000" />
</svg>
