<?xml version="1.0" encoding="UTF-8" standalone="no"?>
<!-- Created with Inkscape (http://www.inkscape.org/) -->

<svg
   xmlns:dc="http://purl.org/dc/elements/1.1/"
   xmlns:cc="http://creativecommons.org/ns#"
   xmlns:rdf="http://www.w3.org/1999/02/22-rdf-syntax-ns#"
   xmlns:svg="http://www.w3.org/2000/svg"
   xmlns="http://www.w3.org/2000/svg"
   version="1.1"
   width="360"
   height="450"
   id="svg3039">
  <metadata
     id="metadata3045">
    <rdf:RDF>
      <cc:Work
         rdf:about="">
        <dc:format>image/svg+xml</dc:format>
        <dc:type
           rdf:resource="http://purl.org/dc/dcmitype/StillImage" />
        <dc:title></dc:title>
      </cc:Work>
    </rdf:RDF>
  </metadata>
  <defs
     id="defs3043" />
  <path
     d="m 127.48182,434.75628 c -0.90528,-2.85229 -5.54964,-4.57291 -6.71629,-2.48822 -1.15561,2.06495 -3.39203,1.96121 -4.21973,-0.19574 -0.82239,-2.14312 3.04989,-5.59775 5.54356,-4.94564 1.79998,0.4707 8.9983,-6.741 11.21547,-11.23632 0.65735,-1.33276 2.39915,-3.13276 3.87068,-4 4.50181,-2.65312 7.78706,-7.52459 8.47902,-12.57296 0.61125,-4.45958 0.77865,-4.6672 3.34861,-4.15321 3.30595,0.66119 4.99686,-0.85874 4.99686,-4.49161 0,-1.50754 0.43165,-3.00776 0.95923,-3.33382 2.32417,-1.43642 14.27241,-1.76887 18.10566,-0.50378 5.78017,1.90762 11.32671,0.41433 11.74088,-3.16101 0.18244,-1.57499 2.09821,-4.3196 4.75,-6.80505 5.03316,-4.71747 5.77164,-6.77542 1.69423,-4.72138 -1.5125,0.76194 -3.93228,1.66821 -5.37729,2.01394 -1.44502,0.34572 -3.36789,1.75888 -4.27306,3.14033 -1.32066,2.01559 -2.46692,2.51175 -5.80282,2.51175 -3.6604,0 -4.67541,-0.55662 -8.49568,-4.65895 -3.85042,-4.13471 -4.58969,-4.53562 -6.56988,-3.56285 -3.66348,1.79967 -6.14898,2.22782 -7.60939,1.31078 -1.63636,-1.02754 -0.6379,-3.08898 1.49615,-3.08898 0.825,0 1.22189,-0.45 0.88197,-1 -0.33992,-0.55 -1.5056,-1 -2.5904,-1 -1.0848,0 -2.19614,-0.58313 -2.46964,-1.29585 C 149.65214,364.46468 143,365.5996 143,367.78704 c 0,1.32022 -1.10845,1.9066 -4.47685,2.36829 -3.89444,0.5338 -4.8035,0.28697 -6.98774,-1.89727 -2.15646,-2.15646 -2.33618,-2.79283 -1.27315,-4.50821 1.0154,-1.63853 0.96829,-2.16958 -0.26226,-2.9563 -0.825,-0.52744 -2.0625,-0.75283 -2.75,-0.50087 -2.51663,0.92232 -1.16219,-1.62211 1.74368,-3.27563 1.64652,-0.93692 2.99652,-2.04099 3,-2.45349 0.003,-0.4125 1.04389,-0.75 2.31204,-0.75 1.26815,0 3.83057,-1.125 5.69428,-2.5 1.86371,-1.375 3.98508,-2.5 4.71415,-2.5 2.22462,0 9.12786,-4.82925 11.01055,-7.70257 3.50844,-5.3545 1.95086,-24.29743 -1.99785,-24.29743 -2.59597,0 -5.72685,1.82434 -5.72685,3.337 0,0.76201 -1.39438,1.30615 -3.5,1.36583 -4.88848,0.13857 -4.52608,-2.0208 0.9919,-5.91023 6.52307,-4.59788 6.68883,-6.28353 1.13399,-11.53192 -4.82191,-4.55588 -5.66178,-5.87216 -3.12589,-4.89905 1.0023,0.38461 1.5,-0.0421 1.5,-1.28603 0,-3.75828 6.05124,-4.17254 8.40804,-0.5756 0.90094,1.375 2.51357,2.5 3.58363,2.5 1.38078,0 1.76551,0.46921 1.32531,1.61633 -0.54234,1.41333 -0.3186,1.45732 1.78139,0.3503 1.3209,-0.69632 2.7069,-1.73559 3.08002,-2.30948 0.46657,-0.71764 1.45962,-0.68748 3.18045,0.0966 1.97979,0.90205 3.35508,0.80494 6.58859,-0.46522 3.93776,-1.54679 4.17017,-1.52666 6.384,0.55313 3.13233,2.94266 4.26481,2.71728 2.19778,-0.4374 -1.62815,-2.48488 -1.61307,-2.6572 0.35312,-4.03437 1.57939,-1.10625 1.91742,-2.1211 1.46313,-4.39257 -0.38896,-1.94482 -0.005,-3.84849 1.12497,-5.57252 1.24126,-1.8944 1.41347,-2.92088 0.62267,-3.71168 -1.93906,-1.93906 -1.31165,-7.50577 0.98446,-8.73461 1.14266,-0.61153 1.8516,-1.7007 1.57544,-2.42038 -0.27617,-0.71968 0.165,-2.26096 0.98037,-3.42506 1.90588,-2.72103 1.04457,-4.04889 -2.38885,-3.68283 -1.72487,0.1839 -3.34816,1.32255 -4.4261,3.10465 l -1.70224,2.81423 -1.16491,-2.92455 c -0.6407,-1.6085 -1.56013,-3.59955 -2.04318,-4.42455 -0.48304,-0.825 -1.54791,-2.9886 -2.36638,-4.80801 -0.81847,-1.8194 -2.38659,-4.56977 -3.48471,-6.11194 -2.24685,-3.15541 -2.00016,-4.71266 2.23687,-14.12007 2.78729,-6.18857 4.94279,-8.46688 7.1934,-7.60324 0.832,0.31927 1.51273,0.12149 1.51273,-0.43951 0,-0.59667 -2.28266,-0.92766 -5.5,-0.79749 -4.44924,0.18 -5.5,0.5512 -5.5,1.94298 0,1.03056 -1.0711,1.98929 -2.67108,2.39086 -1.46909,0.36872 -3.77978,1.5425 -5.13486,2.60841 -3.22067,2.53338 -4.46482,2.44968 -9.76599,-0.65701 C 150.99263,232.79128 149,232.08972 149,232.65952 c 0,0.5698 0.45,1.31412 1,1.65404 1.33994,0.82813 1.27738,5.21053 -0.0864,6.0534 -0.59752,0.36929 -2.51002,-0.67515 -4.25,-2.32099 -4.57459,-4.32708 -7.19087,-5.50693 -8.55817,-3.85943 -0.80644,0.9717 -0.80358,2.19444 0.0106,4.53003 0.61337,1.7595 0.86812,3.44617 0.56612,3.74817 C 136.67218,243.47471 135,241.71917 135,239.6489 c 0,-1.12565 -1.125,-3.38361 -2.5,-5.01771 -2.83059,-3.36396 -3.1863,-6.40179 -1.02877,-8.78584 1.90762,-2.10789 6.5206,-10.78615 6.55659,-12.3347 0.0153,-0.6584 1.33774,-2.92779 2.93875,-5.04309 3.37874,-4.46407 3.04542,-6.48816 -1.87945,-11.41303 -2.93655,-2.93655 -3.96464,-5.24174 -2.33712,-5.24031 0.4125,3.6e-4 0.75,-1.68714 0.75,-3.75 0,-3.43452 0.2318,-3.74734 2.75,-3.71124 2.67176,0.0383 3.6012,-0.89531 1.92354,-1.93217 -3.07083,-1.89787 -8.17354,3.75504 -8.17354,9.05486 0,2.10913 -0.20992,2.22374 -2.01184,1.09842 -1.10652,-0.69103 -1.8064,-1.79181 -1.5553,-2.44617 0.25111,-0.65436 -0.53106,-1.33029 -1.73815,-1.50205 -1.47417,-0.20978 -2.30459,-1.13308 -2.52939,-2.81231 -0.4181,-3.12322 -2.16532,-5.15743 -2.16532,-2.521 0,1.03345 0.52222,3.32317 1.16048,5.08826 1.00646,2.78332 0.88954,3.55369 -0.88097,5.80453 -1.43097,1.81918 -2.25374,4.86076 -2.75136,10.17105 -0.6402,6.83188 -0.95285,7.66813 -3.18413,8.51646 -3.91581,1.48879 -4.61826,1.17175 -4.00872,-1.8093 0.30926,-1.5125 1.08965,-5.45 1.73421,-8.75 0.64455,-3.3 1.56923,-6.49808 2.05483,-7.10684 0.94687,-1.187 0.18544,-6.73747 -1.33062,-9.69968 -0.66111,-1.29173 -0.34537,-2.78821 1.10805,-5.25156 1.5158,-2.5691 1.79969,-4.01674 1.11649,-5.69348 l -0.91614,-2.24844 -0.68011,2.2975 c -1.6565,5.59582 -7.45536,16.2025 -8.85821,16.2025 -1.18546,0 -1.31604,0.52146 -0.60131,2.40135 0.98116,2.58064 -0.17531,4.15701 -4.81129,6.55821 -2.26012,1.17063 -2.32398,1.10357 -1.69145,-1.7763 0.83445,-3.79921 -0.89497,-4.98883 -3.679752,-2.53122 -2.0665,1.82371 -2.08554,1.81516 -1.45064,-0.65204 0.35383,-1.375 0.64948,-3.27835 0.65699,-4.22968 0.0139,-1.7637 6.992172,-6.01119 9.082612,-5.52835 0.61444,0.14192 1.63778,-0.63568 2.2741,-1.72798 0.63632,-1.09231 3.06944,-4.17848 5.40694,-6.85816 2.33838,-2.68068 4.25,-5.89985 4.25,-7.15699 0,-1.25668 0.66741,-2.54097 1.48314,-2.854 0.81573,-0.31302 1.23083,-1.22665 0.92244,-2.03029 -0.33101,-0.86261 0.30183,-1.92278 1.54487,-2.58803 1.15806,-0.61978 1.84065,-1.55551 1.51687,-2.0794 -0.36232,-0.58625 -1.4105,-0.51271 -2.72585,0.19124 -1.28632,0.68842 -0.21851,-1.10201 2.68217,-4.4973 5.76467,-6.74761 4.80825,-7.49089 -1.44295,-1.12138 -2.71882,2.77027 -5.00333,4.30187 -5.90215,3.95697 -1.11675,-0.42854 -1.0625,-0.11641 0.22753,1.30906 0.93166,1.02947 1.69393,2.32909 1.69393,2.88804 0,1.65891 -4.04193,4.8156 -6.35459,4.96286 -1.17997,0.0751 -4.25603,0.57451 -6.83568,1.10973 -3.21285,0.6666 -5.024072,0.63932 -5.749992,-0.0866 -1.83936,-1.83936 -1.16399,-2.65971 2.190262,-2.66044 2.72972,-5.9e-4 3.27221,-0.38679 3.38876,-2.41245 0.0959,-1.66612 -0.52247,-2.61142 -2,-3.05757 -2.10338,-0.63514 -2.10567,-0.66024 -0.13876,-1.51726 1.63353,-0.71176 1.69015,-0.88432 0.30902,-0.94172 -2.72453,-0.11325 -3.042032,-1.83728 -0.75884,-4.12047 1.46959,-1.46959 2.84715,-1.94142 4.47519,-1.53281 1.29363,0.32468 2.61714,0.16142 2.94113,-0.36281 0.324,-0.52423 -0.99843,-1.25096 -2.93871,-1.61496 C 104.58751,149.8888 103,149.22596 103,148.77982 c 0,-1.14443 6.748,-3.24004 7.98045,-2.47834 0.56075,0.34656 1.01955,-0.0491 1.01955,-0.87921 0,-0.83013 0.7875,-1.96801 1.75,-2.52861 0.9625,-0.56061 1.4125,-1.08922 1,-1.17469 -0.4125,-0.0855 -1.2,-0.26791 -1.75,-0.40541 -0.55,-0.1375 -1.26945,-0.30625 -1.59878,-0.375 -0.32932,-0.0687 0.35088,-1.73455 1.51157,-3.70177 1.16069,-1.96722 1.86754,-3.96965 1.57077,-4.44983 -0.29677,-0.48018 0.35627,-1.3525 1.45119,-1.93848 1.26428,-0.67662 1.76517,-1.65333 1.37257,-2.67643 -0.48924,-1.27495 -1.33406,-0.74919 -4.04995,2.52038 -3.67361,4.42254 -5.80254,4.68525 -4.21916,0.52063 1.31248,-3.45208 1.25026,-3.62583 -1.03821,-2.8995 -1.30348,0.41371 -2.01108,0.17598 -2.0318,-0.68261 -0.0216,-0.89481 -0.45136,-0.76503 -1.33976,0.40459 -1.20806,1.59047 -1.52375,1.49673 -4.13365,-1.22742 -2.468642,-2.57671 -3.015472,-3.93029 -3.411452,-8.44456 -0.0458,-0.5225 -0.62334,-0.41 -1.28334,0.25 -1.67437,1.67437 -2.42543,1.51842 -4.76104,-0.98856 -2.32058,-2.49085 -2.376,-2.75135 -1.02364,-4.81144 0.87527,-1.33333 1.09409,-1.33333 1.96937,0 0.73356,1.11745 0.98859,0.48689 1,-2.47251 0.015,-3.88179 0.0509,-3.92175 1.57202,-1.75 2.34957,3.35448 4.83618,2.93693 4.11074,-0.69027 -0.39126,-1.9563 -0.086,-3.32486 0.92952,-4.1677 2.635022,-2.18687 5.360662,1.76074 6.316962,9.14899 0.45785,3.53732 0.88952,5.28399 0.95927,3.88149 0.0697,-1.4025 0.53312,-2.9775 1.02974,-3.5 0.49661,-0.5225 1.14246,-1.85 1.43521,-2.95 0.29276,-1.1 0.29035,0.54141 -0.005,3.64757 -0.46624,4.8975 -0.24572,5.9395 1.66033,7.84555 l 2.19798,2.19798 2.89402,-2.77265 c 3.18988,-3.05609 3.20911,-4.18147 0.0425,-2.48675 -1.84358,0.98666 -2.14665,0.71134 -3.09536,-2.81189 -1.18689,-4.4078 -0.45211,-7.4949 1.59678,-6.70867 1.66794,0.64005 1.81644,-1.56566 0.21334,-3.16876 -0.86413,-0.86413 -0.87017,-1.50397 -0.0238,-2.52379 0.66555,-0.80195 0.76636,-1.7487 0.24408,-2.29238 -0.48972,-0.50942 -1.04151,-2.051211 -1.22656,-3.426211 -0.26183,-1.945486 0.10715,-2.5 1.66354,-2.5 1.1,0 2.36851,-0.9 2.81892,-2 0.73945,-1.805915 0.93477,-1.843114 2.01276,-0.38332 1.02406,1.386776 1.38101,1.416309 2.51004,0.207674 0.72392,-0.774952 2.1428,-1.146654 3.15309,-0.826002 3.2038,1.016848 3.26146,-1.4449 0.0763,-3.257682 -3.61279,-2.056155 -4.3545,-5.782778 -0.93494,-4.697452 2.27187,0.721064 2.26314,0.94779 0.24388,-6.335808 -0.34957,-1.260924 -0.24059,-2.220134 0.24218,-2.131579 4.12618,0.756872 4.87739,-0.06337 5.00393,-5.46368 0.14313,-6.108702 2.81572,-11.612151 5.63911,-11.612151 1.00873,0 3.25438,0.734479 4.99033,1.632176 2.16533,1.119736 3.27393,1.279225 3.53101,0.50799 0.27275,-0.818239 0.92723,-0.828501 2.40484,-0.03771 1.14719,0.613958 3.8303,0.816451 6.16933,0.465595 2.27657,-0.341488 5.87567,-0.594527 7.99801,-0.56231 2.12233,0.03222 4.50631,-0.478825 5.29773,-1.135648 0.79143,-0.656823 3.20187,-1.125146 5.35655,-1.040718 2.99465,0.117343 3.79046,-0.177791 3.37796,-1.252745 -0.43094,-1.123032 0.33129,-1.295 3.78467,-0.853857 2.37837,0.303817 4.51218,0.715865 4.74182,0.915661 0.22964,0.199797 -0.0545,1.901247 -0.63141,3.781001 -0.67506,2.199542 -0.70444,3.76223 -0.0824,4.384245 1.28368,1.283689 -1.38945,6.41775 -4.40258,8.455649 C 173.95216,77.352432 160,91.47548 160,93.104282 c 0,0.940102 -0.45,1.709277 -1,1.709277 -0.55,0 -1,0.375 -1,0.833333 0,0.458334 1.35,0.833334 3,0.833334 1.65,0 3,-0.375 3,-0.833334 0,-0.458333 0.47544,-0.833333 1.05654,-0.833333 1.16441,0 -1.77719,5.502171 -3.88276,7.262581 -0.97959,0.81901 -1.52538,0.78655 -2.08827,-0.12422 -0.58197,-0.94165 -1.06552,-0.86738 -2.04623,0.31431 -1.09625,1.3209 -0.94431,1.54733 1.03828,1.54733 1.80634,0 2.05577,0.26667 1.12244,1.2 -0.66,0.66 -1.2,1.56 -1.2,2 0,1.57484 5.23254,0.76225 7.72713,-1.2 1.39842,-1.1 3.38801,-2 4.4213,-2 1.03329,0 2.7545,-0.54694 3.82492,-1.21543 1.46377,-0.91414 2.76183,-0.94285 5.23643,-0.11584 1.91471,0.6399 9.14307,1.00735 17.29022,0.87893 15.73582,-0.24802 17.85282,0.3802 19.10177,5.66846 1.03106,4.36563 0.892,4.84916 -3.10087,10.78254 -2.38843,3.54919 -3.39707,6.14324 -3.30817,8.50803 0.0703,1.87113 -0.3356,3.98508 -0.90209,4.69768 -0.5665,0.7126 -1.59292,3.09563 -2.28094,5.29563 -0.68802,2.2 -2.31031,5.13777 -3.60509,6.52837 -1.29477,1.39061 -2.87672,4.09061 -3.51544,6 -1.44877,4.33099 -5.6568,8.97163 -8.13528,8.97163 -1.24904,0 -1.61103,0.41594 -1.08787,1.25 0.43124,0.6875 0.65445,2.03786 0.49603,3.0008 -0.18035,1.09624 0.63385,2.1013 2.17782,2.68832 1.35622,0.51563 2.7307,1.36605 3.0544,1.88981 0.8879,1.43664 -3.91688,4.17107 -7.32915,4.17107 -2.17736,0 -3.61421,0.82367 -5.2158,2.98994 -1.21581,1.64447 -3.02928,3.24979 -4.02994,3.56739 -2.81644,0.8939 -2.17065,1.9993 1.89744,3.24783 3.81736,1.17158 3.89532,1.14588 9.82869,-3.24027 0.85763,-0.63399 3.74465,0.32351 8.96542,2.97343 5.7572,2.92221 8.44295,4.98775 10.64279,8.18511 1.6183,2.35211 3.37074,4.27657 3.89432,4.27657 0.52358,0 0.95196,0.41538 0.95196,0.92308 0,0.50769 1.27437,2.19745 2.83194,3.75501 2.25744,2.25744 2.96036,4.06064 3.465,8.88877 0.81121,7.76126 7.29897,28.00915 10.25261,31.99773 1.30876,1.76735 3.89509,3.55984 6.10992,4.23457 6.35185,1.93502 10.13399,4.86892 12.78132,9.91479 3.15507,6.01361 4.46545,7.64302 7.40687,9.21016 l 2.34765,1.25079 -2.17775,1.52535 c -2.8333,1.98453 -2.15784,4.83585 3.04869,12.86947 2.16356,3.33834 3.93375,6.29791 3.93375,6.57681 0,1.25268 -6.71942,-0.58413 -8.67852,-2.37235 -1.19818,-1.09368 -2.77318,-1.75081 -3.5,-1.46029 -0.87501,0.34976 -0.73023,0.55489 0.42852,0.60716 0.9625,0.0434 1.75,0.47423 1.75,0.95734 0,0.48312 2.47978,2.79153 5.51063,5.12981 5.31056,4.09707 8.14731,8.48007 9.82319,15.17759 0.55329,2.21116 -0.0491,3.51896 -3.40853,7.40052 l -4.08057,4.71474 2.82764,2.32811 c 3.55161,2.92417 5.22677,2.66586 7.32254,-1.12916 1.47754,-2.67553 2.24337,-3.03586 7.08091,-3.33155 8.87978,-0.54278 15.2194,1.36864 20.55191,6.19648 4.33103,3.92113 4.70918,4.65253 5.14927,9.95937 0.31245,3.76772 -0.0553,7.17279 -1.07474,9.95158 -0.85234,2.32326 -1.83929,5.66159 -2.19322,7.41851 -0.38528,1.91255 -2.22164,4.62012 -4.57627,6.74739 -2.16302,1.95416 -3.93276,4.43835 -3.93276,5.52043 0,2.31977 -2.79087,4.03779 -6.55926,4.03779 -2.42594,0 -2.63455,0.28093 -2.1198,2.85468 0.82237,4.11186 -1.44562,6.74533 -6.53398,7.58694 l -4.28696,0.70907 4.5,1.50746 c 2.475,0.82911 5.00116,2.14732 5.61368,2.92936 0.88527,1.13027 2.38781,1.24765 7.32607,0.5723 6.00524,-0.82127 6.19364,-0.77975 5.64998,1.24529 -0.30933,1.1522 -0.56857,3.59611 -0.57608,5.43093 -0.0125,3.04651 -0.44358,3.51767 -4.96756,5.42899 -3.37999,1.42801 -5.04797,2.75095 -5.25,4.16397 -0.19394,1.35656 -1.15853,2.17727 -2.79609,2.37904 -1.375,0.16942 -3.91801,0.95692 -5.65113,1.75 -1.73312,0.79308 -3.58493,1.44197 -4.11514,1.44197 -0.53021,0 -2.17598,0.95333 -3.65727,2.11852 -2.65555,2.08885 -2.77165,2.09386 -8.29054,0.35796 -4.90063,-1.54144 -6.41802,-1.6069 -12.1916,-0.52597 -7.76866,1.45445 -14.82991,1.48071 -18.54308,0.069 -2.02047,-0.76818 -3.39691,-0.63353 -5.70037,0.55764 -1.6702,0.86369 -2.80845,1.79863 -2.52945,2.07764 0.27901,0.279 1.43659,0.01 2.57241,-0.59794 2.17704,-1.16512 6.71274,-0.50243 7.72039,1.12799 0.32742,0.52978 -0.39993,2.02264 -1.61634,3.31745 l -2.21167,2.35421 -3.8981,-2.03181 c -2.14395,-1.11749 -4.14741,-2.43519 -4.45212,-2.92823 -0.63059,-1.02032 -5.48352,-1.19916 -7.8542,-0.28944 -0.86999,0.33384 -1.58179,1.50303 -1.58179,2.59819 0,1.84439 -0.44236,1.93985 -6,1.29482 -5.22384,-0.60629 -6,-0.47955 -6,0.97974 0,1.2555 -1.06651,0.75533 -4.25,-1.99313 -3.95067,-3.41081 -4.59176,-3.63005 -9.10245,-3.1129 C 180.66631,407.87301 173,412.14749 173,414.7967 c 0,1.04435 -0.47185,2.19045 -1.04856,2.54687 -0.72979,0.45103 -0.72604,1.03666 0.0123,1.92634 0.77093,0.92891 0.61907,1.64497 -0.55561,2.61987 -0.88908,0.73787 -2.00523,2.36398 -2.48032,3.61358 -0.88594,2.3302 -2.76653,2.29953 -5.82709,-0.095 -2.92127,-2.28558 -13.24811,-4.43936 -16.25677,-3.39054 -1.57795,0.55008 -3.53379,0.74504 -4.3463,0.43325 -0.98438,-0.37774 -1.68369,0.25548 -2.09589,1.89782 -0.34021,1.35555 -1.17594,2.46467 -1.85716,2.46467 -1.82052,0 -5.5446,3.50089 -5.5446,5.21231 0,1.41504 -3.00187,4.78769 -4.26135,4.78769 -0.33213,0 -0.89771,-0.92578 -1.25683,-2.05728 z M 104.54645,266.85346 c -2.24035,-1.4768 -3.28025,-1.67579 -4.30651,-0.82407 -0.744122,0.61757 -2.677522,1.26786 -4.296452,1.44509 -2.67385,0.29272 -2.94349,0.0482 -2.94349,-2.66934 0,-1.8393 -0.51806,-2.99158 -1.34501,-2.99158 -1.67627,0 -4.65499,-3.19949 -4.65499,-5 0,-0.73839 -0.72409,-2.14263 -1.60909,-3.12054 -1.53821,-1.6997 -1.73437,-1.6854 -4.45309,0.32464 -2.25297,1.66569 -2.64447,2.47551 -1.88384,3.89675 1.58763,2.96653 -2.84784,6.63836 -7.37983,6.10927 -1.98224,-0.23141 -4.12493,-1.04836 -4.76155,-1.81544 -0.63662,-0.76707 -2.00239,-1.39468 -3.03504,-1.39468 -1.03266,0 -1.87756,-0.48529 -1.87756,-1.07842 0,-0.59313 -1.83209,-2.89229 -4.0713,-5.10924 l -4.07131,-4.03082 2.275589,-2.12003 c 1.251571,-1.16602 3.220261,-1.99624 4.374851,-1.84494 1.15459,0.1513 2.93241,-0.64553 3.9507,-1.77073 1.80757,-1.99734 1.80328,-2.04582 -0.1811,-2.04582 -2.19644,0 -4.88817,-2.50451 -3.56837,-3.32019 0.4434,-0.27403 2.5029,-0.81655 4.57667,-1.20559 3.21217,-0.60261 4.06248,-1.34831 5.74238,-5.03592 1.08454,-2.38071 1.97189,-4.97316 1.97189,-5.76099 0,-2.36379 2.96621,-4.08836 6.60981,-3.84298 3.09805,0.20865 3.48636,-0.0652 4.04364,-2.85157 0.54388,-2.71937 0.92831,-3.0139 3.26426,-2.50083 1.56797,0.34438 4.01544,-0.10073 6.0014,-1.09146 2.71097,-1.35241 4.42934,-1.50221 8.967252,-0.78174 4.94021,0.78435 5.65379,1.19118 5.94832,3.39127 0.18407,1.375 0.74657,2.9275 1.25,3.45 0.50342,0.5225 0.91532,1.67172 0.91532,2.55383 0,0.88211 1.575,3.13039 3.5,4.99617 4.21794,4.08819 4.393,6.1641 0.75,8.89364 l -2.75,2.06046 4.51177,-0.58032 c 4.41691,-0.56812 4.5378,-0.50833 5.75,2.84395 1.76425,4.87894 1.52983,8.79175 -0.75081,12.53227 -1.52575,2.50241 -2.67065,3.25 -4.97721,3.25 -2.44292,0 -3.1162,0.5074 -3.64901,2.75 -0.63645,2.67883 -3.0947,6.25664 -4.28973,6.24341 -0.32725,-0.004 -1.92411,-0.8827 -3.54856,-1.95351 z M 139,268.43165 c 0,-2.14793 4.49379,-9.98532 7.55054,-13.16849 l 3.79273,-3.9496 0.74514,3.4606 c 0.91156,4.23351 -0.82161,8.00117 -5.07332,11.02866 -1.6583,1.18081 -3.01509,1.87545 -3.01509,1.54365 0,-0.3318 -0.9,-0.12161 -2,0.46709 -1.1,0.5887 -2,0.86684 -2,0.61809 z m -12.33394,-62.36809 c -0.24859,-0.4125 -0.9043,-2.40283 -1.45714,-4.42295 -1.12489,-4.11047 0.69737,-8.18398 3.22684,-7.21333 1.60044,0.61415 4.919,10.00325 4.03893,11.42723 -0.69966,1.13207 -5.15574,1.29244 -5.80863,0.20905 z M 102,180.74782 c 0,-1.67077 1.97305,-4.93426 2.98316,-4.93426 0.52084,0 0.46373,1.28821 -0.133,3 C 103.84408,181.6996 102,182.95108 102,180.74782 z m -17.351302,-19.6189 c -1.5006,-1.50059 -0.43803,-3.22981 2.6013,-4.23337 1.7875,-0.59022 4.5806,-2.48333 6.20688,-4.20693 2.00447,-2.12442 3.09901,-2.7074 3.39816,-1.80995 0.24271,0.72812 -0.5646,2.02384 -1.79402,2.87937 -1.22942,0.85554 -3.92919,3.00993 -5.99947,4.78755 -2.07029,1.77761 -4.05607,2.94011 -4.41285,2.58333 z M 104,140.31356 c 0,-0.825 0.45,-1.5 1,-1.5 0.55,0 1,0.675 1,1.5 0,0.825 -0.45,1.5 -1,1.5 -0.55,0 -1,-0.675 -1,-1.5 z M 69.555778,139.9038 c -0.7105,-1.1496 0.40781,-4.16103 2.22902,-6.00242 2.54009,-2.56823 3.32473,0.84502 0.93675,4.07494 -2.34645,3.17375 -2.38212,3.19546 -3.16577,1.92748 z m 29.65672,-2.27774 c -1.70003,-1.70004 -1.50854,-3.48492 0.45472,-4.23829 2.084622,-0.79995 3.629122,0.65224 3.176562,2.9867 -0.43671,2.25274 -2.06791,2.81496 -3.631282,1.25159 z m -4.4,-4.49561 c 0.72188,-0.28887 1.58438,-0.25335 1.91667,0.0789 0.33229,0.33229 -0.25833,0.56864 -1.3125,0.52522 -1.16494,-0.048 -1.4019,-0.28494 -0.60417,-0.60416 z m -20.2537,-2.25192 c -1.57056,-1.73545 -1.74627,-3.23605 -1.28436,-10.96893 0.47225,-7.90618 0.31426,-9.15829 -1.34508,-10.65997 -1.25483,-1.13561 -1.60111,-2.2002 -1.04112,-3.20085 1.05784,-1.89026 8.48334,-4.55207 8.9451,-3.20654 0.18333,0.53423 0.97083,0.97132 1.75,0.97132 1.50046,0 1.8759,1.20743 0.73132,2.352 -1.66098,1.66099 -3.38695,8.77124 -3.91983,16.148 -0.71268,9.86606 -1.35688,11.3044 -3.83603,8.56497 z m 8.1912,-31.457017 c -2.1295,-1.616524 -2.28691,-3.607954 -0.28518,-3.607954 0.80565,0 1.94876,-0.904253 2.54024,-2.009451 0.90953,-1.699466 0.7046,-2.150439 -1.32843,-2.923396 -2.45423,-0.933094 -4.44711,-4.067153 -2.58623,-4.067153 0.57046,0 0.68145,-0.5561 0.24947,-1.25 -0.97726,-1.569823 -0.47549,-5.847985 0.87965,-7.5 0.56396,-0.6875 1.87027,-1.25 2.90293,-1.25 1.03265,0 1.88063,-0.3375 1.88439,-0.75 0.004,-0.4125 1.69125,-1.859211 3.75,-3.214912 2.05874,-1.355702 5.50256,-4.006986 7.65293,-5.891742 3.730202,-3.269441 3.972652,-3.340838 5.278822,-1.554545 1.60128,2.189872 0.87089,7.024693 -1.46042,9.66733 -1.93454,2.192878 -0.85751,3.511066 1.363,1.668202 1.43298,-1.189269 1.59143,-1.112744 1.25781,0.607499 -0.22648,1.16781 -1.18835,1.968168 -2.36534,1.968168 -1.58362,0 -2.04791,0.784474 -2.30235,3.890055 -0.391892,4.783133 -2.671552,8.443904 -5.737422,9.213389 -1.45803,0.365942 -2.1113,1.09964 -1.77031,1.988255 0.66952,1.744735 -0.83962,1.839057 -2.5328,0.158301 -1.00967,-1.002256 -1.12703,-0.902693 -0.59211,0.502345 0.4476,1.175712 -0.10877,2.398752 -1.69076,3.71673 -2.79972,2.332486 -2.86593,2.340766 -5.10789,0.638879 z M 185.4829,51.431093 c -0.47521,-1.120241 -0.31048,-2.66397 0.40682,-3.812548 0.66294,-1.061545 0.92874,-2.801596 0.59067,-3.866781 -0.50275,-1.58402 -0.97572,-1.743479 -2.59728,-0.87565 -1.44762,0.774744 -2.78966,0.707083 -4.97362,-0.250753 -2.69264,-1.180935 -2.96202,-1.709986 -2.70026,-5.303175 0.2242,-3.07758 0.74865,-4.074219 2.29077,-4.353238 1.1,-0.199025 2.675,-0.940565 3.5,-1.647867 1.01811,-0.872863 2.24347,-1.003044 3.81424,-0.405221 2.5161,0.957605 2.10301,2.888324 -0.62326,2.913012 -1.40161,0.01269 -1.44529,0.170776 -0.25528,0.923784 1.18492,0.749788 1.20892,1.181724 0.13737,2.472854 -1.09148,1.315154 -1.00158,1.660858 0.56431,2.169951 1.02444,0.333063 3.16379,1.094354 4.7541,1.691758 l 2.89149,1.08619 -2.43119,2.091221 c -1.33716,1.150172 -2.9125,3.656705 -3.50077,5.570075 -0.91052,2.961523 -1.18832,3.198918 -1.86811,1.596388 z m -9.55652,-3.72093 c -1.81733,-2.552199 -1.96263,-3.259923 -0.8181,-3.984687 2.14624,-1.359086 3.29955,-1.089774 4.65965,1.088083 0.68696,1.1 1.98995,2 2.89553,2 1.4742,0 1.45709,0.20931 -0.16346,2 -2.50075,2.763301 -3.99942,2.511748 -6.57362,-1.103396 z m 11.76747,-9.536084 c -0.79893,-0.798931 0.10419,-2.36052 1.36517,-2.36052 0.51754,0 0.94098,0.675 0.94098,1.5 0,1.54641 -1.17996,1.986704 -2.30615,0.86052 z m 5.73472,-4.36052 c 0,-2.290504 0.65871,-2.512719 2.37143,-0.8 1.71155,1.711548 1.48386,2.8 -0.58571,2.8 -1.11905,0 -1.78572,-0.746667 -1.78572,-2 z m -3.42857,-3.5 c 0,-1.375 0.45,-2.5 1,-2.5 0.55,0 1,1.125 1,2.5 0,1.375 -0.45,2.5 -1,2.5 -0.55,0 -1,-1.125 -1,-2.5 z m 3.57436,-0.725 c 1.35396,-4.06806 1.77721,-4.542062 3.94114,-4.413763 2.16378,0.12829 2.22094,0.270841 0.75747,1.888763 -0.87062,0.9625 -2.1507,1.75 -2.84462,1.75 -0.69393,0 -1.49043,0.46125 -1.77002,1.025 -0.27958,0.56375 -0.31737,0.45125 -0.084,-0.25 z M 186.25,26.729223 c -2.97331,-1.124855 -2.85749,-3.317844 0.25,-4.73371 2.40474,-1.095673 3.6037,0.01789 1.45144,1.348057 -0.7147,0.441708 -0.66932,1.104991 0.1425,2.083183 1.57029,1.892076 0.92303,2.349266 -1.84394,1.30247 z"
     id="path3049"
     style="fill:#000000" />
</svg>
