<?xml version="1.0" encoding="iso-8859-1"?>
<!-- Generator: Adobe Illustrator 16.0.0, SVG Export Plug-In . SVG Version: 6.00 Build 0)  -->
<!DOCTYPE svg PUBLIC "-//W3C//DTD SVG 1.1//EN" "http://www.w3.org/Graphics/SVG/1.1/DTD/svg11.dtd">
<svg xmlns="http://www.w3.org/2000/svg" xmlns:xlink="http://www.w3.org/1999/xlink" version="1.1" id="Capa_1" x="0px" y="0px" width="512px" height="512px" viewBox="0 0 931.843 931.843" style="enable-background:new 0 0 931.843 931.843;" xml:space="preserve">
<g>
	<path d="M926.932,305.137c12.301-38.3,1.4-86.6-32-124c-14.5-16.2-31.4-28.5-49.199-36.5c-5.1-8.4-11.201-16.6-18.1-24.4   c-29.9-33.5-69.4-51.5-105.701-51.7c-25.4-19.5-59.699-34.3-98.699-40.4c-30.7-4.8-60.3-3.6-86.2,2.4c-22.5-9.8-49-13.8-76.8-10.3   c-28.899,3.7-54.5,14.9-74.1,31c-31-14-70.9-14.8-108.9,0.9c-32.7,13.5-57.8,36.5-72,63c-25.4,5.6-51.1,19.1-73,40.1   c-31.1,29.8-47.5,68-47.4,102.8c-37.8,21-61.8,57.1-60.1,95.6c-10.1,15.4-17.7,33.5-21.7,53.4c-6.9,34.5-1.7,67.899,12.3,94.3   c-1,58.3,31.7,108.6,80.9,118.4c3.2,0.6,6.4,1.1,9.6,1.399c-1.7,12.101-1.5,24.4,1,36.7c14.1,71.1,95.7,114.8,182.3,97.6   c3.899-0.8,7.8-1.699,11.6-2.699l0,0c12.9,20.699,39.7,11.8,39.7,11.8v76.6c0,8.2,3.1,16,8.8,22l42.4,44.7   c9.899,10.5,27.5,3.4,27.5-11v-86.6c2.6-78.101,31.3-116.7,55.8-131.4c33-19.9,32.5-61.3,32.3-76.4   c26,13.7,67.101,21.5,101.5,17.601c155.199-17.9,163.299-122.3,168.4-139.4c45.299,3.4,86.898-15.8,104.898-52.7   c2.5-5.199,4.5-10.6,5.9-16c15-8.899,27.301-21.6,35.1-37.6C933.633,352.737,934.332,328.337,926.932,305.137z" fill="#99c344"/>
</g>
<g>
</g>
<g>
</g>
<g>
</g>
<g>
</g>
<g>
</g>
<g>
</g>
<g>
</g>
<g>
</g>
<g>
</g>
<g>
</g>
<g>
</g>
<g>
</g>
<g>
</g>
<g>
</g>
<g>
</g>
</svg>
