<?xml version="1.0" encoding="iso-8859-1"?>
<!-- Generator: Adobe Illustrator 16.0.0, SVG Export Plug-In . SVG Version: 6.00 Build 0)  -->
<!DOCTYPE svg PUBLIC "-//W3C//DTD SVG 1.1//EN" "http://www.w3.org/Graphics/SVG/1.1/DTD/svg11.dtd">
<svg version="1.1" id="Capa_1" xmlns="http://www.w3.org/2000/svg" xmlns:xlink="http://www.w3.org/1999/xlink" x="0px" y="0px"
	 width="261.066px" height="261.066px" viewBox="0 0 261.066 261.066" style="enable-background:new 0 0 261.066 261.066;"
	 xml:space="preserve">
<g>
	<g>
		<polygon points="124.047,38.351 128.966,38.351 128.966,32.168 135.276,32.168 135.276,27.246 128.966,27.246 128.966,21.063 
			124.047,21.063 124.047,27.246 117.992,27.246 117.992,32.168 124.047,32.168 		"/>
		<path d="M177.458,70.022V17.597c0,0-50.818-39.592-101.647,0v52.426c0,0,16.176-16.179,50.197-16.73
			C160.022,52.735,177.458,70.022,177.458,70.022z M107.816,23.732c0-5.939,4.813-10.755,10.752-10.755
			c3.213,0,6.087,1.421,8.065,3.653c1.973-2.232,4.847-3.653,8.06-3.653c5.941,0,10.752,4.815,10.752,10.755
			c0,3.286-1.476,6.219-3.801,8.192h0.005l-14.793,14.517l-15.25-14.517h0.005C109.295,29.951,107.816,27.013,107.816,23.732z"/>
		<path d="M71.971,89.836c0,30.181,24.477,68.038,54.663,68.038c30.178,0,54.661-37.852,54.661-68.038
			c0-1.432-0.109-2.83-0.213-4.23l-8.564-8.495c-0.776-0.738-15.503-14.465-44.275-14.465l-1.476,0.016
			c-29.979,0.489-44.157,13.877-44.747,14.45l-9.877,9.559C72.072,87.721,71.971,88.765,71.971,89.836z"/>
		<path d="M183.521,141.144l-55.779,95.36l-50.191-95.36c0,0-46.116,4.147-59.09,68.222c-2.322,11.48,2.879,28.972,13.145,34.611
			c15.34,8.414,44.555,17.538,98.925,17.072c54.373,0.466,83.588-8.653,98.93-17.072c10.269-5.629,15.473-23.131,13.143-34.611
			C229.632,145.291,183.521,141.144,183.521,141.144z M86.309,248.74c-19.692,0-37.769-7.503-38.701-7.902l4.114-9.771
			c0.253,0.104,25.505,10.553,46.417,5.846l2.328,10.346C95.806,248.315,91.014,248.74,86.309,248.74z M169.457,250.765
			c-4.696,0-9.486-0.43-14.156-1.481l2.33-10.346c20.966,4.733,46.152-5.742,46.411-5.846l4.116,9.771
			C207.231,243.262,189.155,250.765,169.457,250.765z"/>
	</g>
</g>
<g>
</g>
<g>
</g>
<g>
</g>
<g>
</g>
<g>
</g>
<g>
</g>
<g>
</g>
<g>
</g>
<g>
</g>
<g>
</g>
<g>
</g>
<g>
</g>
<g>
</g>
<g>
</g>
<g>
</g>
</svg>
