<?xml version="1.0" encoding="UTF-8" standalone="no"?>
<!-- Created with Inkscape (http://www.inkscape.org/) -->

<svg
   xmlns:dc="http://purl.org/dc/elements/1.1/"
   xmlns:cc="http://creativecommons.org/ns#"
   xmlns:rdf="http://www.w3.org/1999/02/22-rdf-syntax-ns#"
   xmlns:svg="http://www.w3.org/2000/svg"
   xmlns="http://www.w3.org/2000/svg"
   version="1.1"
   width="128"
   height="128"
   id="svg3132">
  <metadata
     id="metadata3138">
    <rdf:RDF>
      <cc:Work
         rdf:about="">
        <dc:format>image/svg+xml</dc:format>
        <dc:type
           rdf:resource="http://purl.org/dc/dcmitype/StillImage" />
        <dc:title></dc:title>
      </cc:Work>
    </rdf:RDF>
  </metadata>
  <defs
     id="defs3136" />
  <path
     d="m 5.2500002,127.33772 c -1.920469,-0.77493 -1.6482732,-13.32409 0.350913,-16.17833 2.238009,-3.19521 5.6792698,-4.30628 9.3616708,-3.02259 2.055574,0.71658 3.960615,0.73702 5.893416,0.0632 6.23256,-2.17268 11.144,3.1226 11.144,12.01492 0,7.48343 -0.557772,7.79523 -13.785184,7.70609 -6.443149,-0.0434 -12.2773158,-0.30588 -12.9648158,-0.58329 z M 51.2,126.8 c -1.493243,-1.49324 -1.580275,-12.22093 -0.121263,-14.94712 1.613343,-3.01456 6.669289,-4.83668 10.101092,-3.64035 1.847827,0.64416 3.792515,0.64416 5.640342,0 3.431803,-1.19633 8.487749,0.62579 10.101092,3.64035 1.459012,2.72619 1.37198,13.45388 -0.121263,14.94712 -1.654873,1.65487 -23.945127,1.65487 -25.6,0 z m 45.835181,-0.73426 c -1.34032,-2.50442 -1.32521,-8.93531 0.0301,-12.82324 1.40898,-4.04179 6.147929,-6.41273 10.078689,-5.04246 1.9328,0.67378 3.83784,0.65334 5.89342,-0.0632 3.6824,-1.28369 7.12366,-0.17262 9.36167,3.02259 2.24353,3.2031 2.25787,15.37453 0.0191,16.23362 C 121.5482,127.72686 115.71403,128 109.45337,128 99.222751,128 97.965531,127.80418 97.035151,126.06574 z m -85.70669,-23.45961 c -2.2247108,-1.91361 -2.7830368,-3.238921 -2.7830368,-6.606131 0,-5.42112 3.7119348,-9.01596 9.2603098,-8.9682 8.254427,0.0711 11.989829,8.49238 6.605342,14.891471 -3.3528,3.98458 -8.907097,4.27449 -13.082615,0.68286 z m 46.126054,-0.0607 C 55.648485,100.73939 55,99.010099 55,95.999999 c 0,-3.0101 0.648485,-4.73939 2.454545,-6.54545 3.410988,-3.41099 9.679922,-3.41099 13.09091,0 3.410987,3.41098 3.410987,9.67992 0,13.090901 C 68.739394,104.35152 67.010101,105 64,105 c -3.010101,0 -4.739394,-0.64848 -6.545455,-2.45455 z m 46.134345,-0.62218 c -5.384479,-6.399091 -1.64908,-14.820401 6.60535,-14.891471 5.54837,-0.0478 9.26031,3.54708 9.26031,8.9682 0,5.470181 -3.6951,9.000001 -9.42142,9.000001 -3.07745,0 -4.3777,-0.62079 -6.44424,-3.07673 z M 14.627747,76.472309 C 13.527605,73.605389 13.945426,62.454569 15.2,61.199999 c 0.859939,-0.85994 7.377778,-1.2 23,-1.2 l 21.8,0 0,-5.42857 C 60,49.434588 61.602808,46 64,46 c 2.397192,0 4,3.434588 4,8.571429 l 0,5.42857 21.8,0 c 15.62222,0 22.14006,0.34006 23,1.2 1.37306,1.37306 1.62416,13.58252 0.3216,15.63749 -0.46628,0.73562 -1.92189,1.18562 -3.23469,1 -2.07023,-0.29271 -2.45325,-1.00085 -2.88691,-5.33749 l -0.5,-5 -19.194335,-0.2714 -19.194335,-0.2714 -0.305665,4.66897 c -0.575622,8.79249 -7.035708,8.79249 -7.61133,0 l -0.305665,-4.66897 -19.194335,0.2714 -19.194335,0.2714 -0.5,5 c -0.449927,4.49927 -0.762611,5.03045 -3.122253,5.3041 -1.708686,0.19815 -2.840954,-0.26583 -3.25,-1.33179 z M 51.2,40.8 c -1.467752,-1.467752 -1.590839,-12.201194 -0.170356,-14.855391 1.767533,-3.302664 6.322413,-5.066444 9.880605,-3.826052 2.207267,0.769458 3.972235,0.769458 6.179502,0 3.558192,-1.240392 8.113072,0.523388 9.880605,3.826052 C 78.390839,28.598806 78.267752,39.332248 76.8,40.8 c -1.654873,1.654873 -23.945127,1.654873 -25.6,0 z M 58.076725,16.411106 C 55.532587,14.270355 55,13.088816 55,9.5854203 c 0,-5.608626 3.41617,-9.03996598 9,-9.03996598 5.58383,0 9,3.43133998 9,9.03996598 0,3.5033957 -0.532587,4.6849347 -3.076725,6.8256857 C 68.190191,17.8694 65.603429,19 64,19 62.396571,19 59.809809,17.8694 58.076725,16.411106 z"
     id="path3142"
     style="fill:#000000" />
</svg>
