<?xml version="1.0" encoding="iso-8859-1"?>
<!-- Generator: Adobe Illustrator 18.1.1, SVG Export Plug-In . SVG Version: 6.00 Build 0)  -->
<svg version="1.1" id="Capa_1" xmlns="http://www.w3.org/2000/svg" xmlns:xlink="http://www.w3.org/1999/xlink" x="0px" y="0px"
	 viewBox="0 0 52.309 52.309" style="enable-background:new 0 0 52.309 52.309;" xml:space="preserve">
<g>
	<g>
		<path style="fill:#010002;" d="M24.531,44.822h-0.754c-0.417,0-0.754,0.339-0.754,0.756v1.035c0,0.418,0.337,0.757,0.754,0.757
			h0.754c0.417,0,0.755-0.339,0.755-0.757v-1.035C25.286,45.161,24.948,44.822,24.531,44.822z"/>
		<path style="fill:#010002;" d="M28.531,44.822h-0.754c-0.417,0-0.755,0.339-0.755,0.756v1.035c0,0.418,0.338,0.757,0.755,0.757
			h0.754c0.417,0,0.755-0.339,0.755-0.757v-1.035C29.286,45.161,28.948,44.822,28.531,44.822z"/>
		<path style="fill:#010002;" d="M49.495,0.44H2.813c-1.657,0-2.914,1.341-2.807,2.994L2.93,48.875
			c0.106,1.652,1.536,2.994,3.193,2.994h14.178l-0.808-8.17c-0.163-1.648,1.048-2.985,2.705-2.985h8.112
			c1.658,0,2.869,1.337,2.705,2.985l-0.809,8.17h13.979c1.658,0,3.087-1.342,3.193-2.994l2.924-45.441
			C52.409,1.78,51.152,0.44,49.495,0.44z M37.688,18.039c0-0.6,0.485-1.087,1.086-1.087h3.358c0.6,0,1.086,0.487,1.086,1.087v4.667
			c0,0.602-0.486,1.088-1.086,1.088h-3.358c-0.601,0-1.086-0.486-1.086-1.088V18.039z M14.62,46.568
			c0,0.601-0.487,1.086-1.087,1.086h-3.358c-0.6,0-1.086-0.485-1.086-1.086v-4.67c0-0.6,0.486-1.086,1.086-1.086h3.358
			c0.6,0,1.087,0.486,1.087,1.086V46.568z M14.62,34.249c0,0.603-0.487,1.087-1.087,1.087h-3.358c-0.6,0-1.086-0.484-1.086-1.087
			v-4.668c0-0.601,0.486-1.087,1.086-1.087h3.358c0.6,0,1.087,0.486,1.087,1.087V34.249z M14.62,22.706
			c0,0.602-0.487,1.088-1.087,1.088h-3.358c-0.6,0-1.086-0.486-1.086-1.088v-4.667c0-0.6,0.486-1.087,1.086-1.087h3.358
			c0.6,0,1.087,0.487,1.087,1.087V22.706z M24.157,34.249c0,0.603-0.486,1.087-1.086,1.087h-3.358c-0.6,0-1.086-0.484-1.086-1.087
			v-4.668c0-0.601,0.487-1.087,1.086-1.087h3.358c0.6,0,1.086,0.486,1.086,1.087V34.249z M24.157,22.706
			c0,0.602-0.486,1.088-1.086,1.088h-3.358c-0.6,0-1.086-0.486-1.086-1.088v-4.667c0-0.6,0.487-1.087,1.086-1.087h3.358
			c0.6,0,1.086,0.487,1.086,1.087V22.706z M27.683,10.02v2.844c0,0.188-0.151,0.339-0.34,0.339h-2.379
			c-0.19,0-0.342-0.15-0.342-0.339V10.02c0-0.189-0.149-0.339-0.339-0.339H21.44c-0.188,0-0.339-0.153-0.339-0.34v-2.38
			c0-0.188,0.151-0.339,0.339-0.339h2.843c0.191,0,0.339-0.154,0.339-0.342V3.437c0-0.188,0.151-0.339,0.342-0.339h2.379
			c0.188,0,0.34,0.151,0.34,0.339v2.844c0,0.188,0.15,0.342,0.34,0.342h2.843c0.188,0,0.34,0.15,0.34,0.339v2.38
			c0,0.187-0.151,0.34-0.34,0.34h-2.843C27.836,9.681,27.683,9.83,27.683,10.02z M33.681,34.249c0,0.603-0.486,1.087-1.088,1.087
			h-3.358c-0.601,0-1.086-0.484-1.086-1.087v-4.668c0-0.601,0.485-1.087,1.086-1.087h3.358c0.602,0,1.088,0.486,1.088,1.087V34.249z
			 M33.681,22.706c0,0.602-0.486,1.088-1.088,1.088h-3.358c-0.601,0-1.086-0.486-1.086-1.088v-4.667c0-0.6,0.485-1.087,1.086-1.087
			h3.358c0.602,0,1.088,0.487,1.088,1.087V22.706z M37.688,29.581c0-0.601,0.485-1.087,1.086-1.087h3.358
			c0.6,0,1.086,0.486,1.086,1.087v4.668c0,0.603-0.486,1.087-1.086,1.087h-3.358c-0.601,0-1.086-0.484-1.086-1.087V29.581z
			 M43.22,46.568c0,0.601-0.487,1.086-1.088,1.086h-3.357c-0.602,0-1.086-0.485-1.086-1.086v-4.67c0-0.6,0.484-1.086,1.086-1.086
			h3.357c0.601,0,1.088,0.486,1.088,1.086V46.568z"/>
	</g>
</g>
<g>
</g>
<g>
</g>
<g>
</g>
<g>
</g>
<g>
</g>
<g>
</g>
<g>
</g>
<g>
</g>
<g>
</g>
<g>
</g>
<g>
</g>
<g>
</g>
<g>
</g>
<g>
</g>
<g>
</g>
</svg>
