<?xml version="1.0" encoding="UTF-8" standalone="no"?>
<svg
   xmlns:dc="http://purl.org/dc/elements/1.1/"
   xmlns:cc="http://creativecommons.org/ns#"
   xmlns:rdf="http://www.w3.org/1999/02/22-rdf-syntax-ns#"
   xmlns:svg="http://www.w3.org/2000/svg"
   xmlns="http://www.w3.org/2000/svg"
   xmlns:sodipodi="http://sodipodi.sourceforge.net/DTD/sodipodi-0.dtd"
   xmlns:inkscape="http://www.inkscape.org/namespaces/inkscape"
   width="936"
   height="906"
   version="1.1"
   id="svg1655"
   sodipodi:docname="macc.svg"
   inkscape:version="0.92.2 (5c3e80d, 2017-08-06)">
  <metadata
     id="metadata1661">
    <rdf:RDF>
      <cc:Work
         rdf:about="">
        <dc:format>image/svg+xml</dc:format>
        <dc:type
           rdf:resource="http://purl.org/dc/dcmitype/StillImage" />
      </cc:Work>
    </rdf:RDF>
  </metadata>
  <defs
     id="defs1659" />
  <sodipodi:namedview
     pagecolor="#ffffff"
     bordercolor="#666666"
     borderopacity="1"
     objecttolerance="10"
     gridtolerance="10"
     guidetolerance="10"
     inkscape:pageopacity="0"
     inkscape:pageshadow="2"
     inkscape:window-width="1920"
     inkscape:window-height="1025"
     id="namedview1657"
     showgrid="false"
     inkscape:zoom="0.9"
     inkscape:cx="642.37134"
     inkscape:cy="406.95963"
     inkscape:window-x="0"
     inkscape:window-y="27"
     inkscape:window-maximized="1"
     inkscape:current-layer="svg1655" />
  <path
     style="fill:#000000;stroke-width:1.69283247"
     d="m 76,445.19336 v 407.94922 h 32.99219 v -32.74024 h 90.82812 v -53.2539 H 297 V 699.99023 H 400.99219 V 647.99219 H 401 v 51.66601 h 1.79883 v -51.66601 h 35.05859 V 445.19336 H 400.99219 297 199.82031 108.99219 98.992188 Z m 362,0 v 161.97266 h 36.87109 v -15.91407 h 25.21485 v -24.55078 h 12.48047 v -12.60351 h 13.77148 V 540.7793 h 11.76563 v -18.28321 h 9.41796 v -77.30273 h -9.41796 -11.76563 -13.77148 -12.48047 -25.21485 z m 110,0 v 76.04297 h 22.2832 v -44.7793 h 4.63282 v -31.26367 h -4.63282 z m 27,0 v 20.19922 h 33.66406 v -20.19922 z m 34,0 v 7.03711 h 1.87891 v -7.03711 z"
     id="CostEffectiveRect"
     inkscape:connector-curvature="0" />
  <path
     style="fill:#000000;stroke-width:1.12635851"
     d="m 922,320.59375 v 68.36523 H 708.02148 V 418.3125 H 611 v 26.88086 h 97.02148 214.03516 13.81641 V 320.59375 Z"
     id="NonCostEffectiveRect"
     inkscape:connector-curvature="0" />
  <g
     class="axis"
     transform="translate(0,445.1931230559946)"
     id="g1583">
    <g
       class="tick"
       transform="translate(75,0)"
       style="opacity: 1;"
       id="g1519">
      <line
         y2="6"
         x2="0"
         id="line1515" />
    </g>
    <path
       class="domain"
       d="M 75,1.5369458 V -5.5555556 H 936 V 1.5369458"
       id="path1581"
       inkscape:connector-curvature="0"
       style="stroke-width:1.08723676" />
  </g>
  <g
     class="axis"
     transform="translate(75,-7.8216196e-6)"
     id="g1653">
    <g
       class="tick"
       transform="translate(0,445.19312)"
       style="opacity:1"
       id="g1619">
      <line
         x2="-6"
         y2="0"
         id="line1615"
         x1="0"
         y1="0" />
      <text
         dy="0.31999999em"
         x="-9"
         y="0"
         style="text-anchor:end"
         id="text1617">0</text>
    </g>
    <path
       class="domain"
       d="M -7.0925014,0 H 4.4444444 V 886 H -7.0925014"
       id="path1651"
       style="stroke-width:8.21934795;stroke-miterlimit:4;stroke-dasharray:none"
       inkscape:connector-curvature="0" />
  </g>
</svg>
