<?xml version="1.0" encoding="UTF-8" standalone="no"?>
<!-- Generator: Adobe Illustrator 19.0.0, SVG Export Plug-In . SVG Version: 6.00 Build 0)  -->

<svg
   xmlns:dc="http://purl.org/dc/elements/1.1/"
   xmlns:cc="http://creativecommons.org/ns#"
   xmlns:rdf="http://www.w3.org/1999/02/22-rdf-syntax-ns#"
   xmlns:svg="http://www.w3.org/2000/svg"
   xmlns="http://www.w3.org/2000/svg"
   xmlns:sodipodi="http://sodipodi.sourceforge.net/DTD/sodipodi-0.dtd"
   xmlns:inkscape="http://www.inkscape.org/namespaces/inkscape"
   version="1.1"
   id="Layer_1"
   x="0px"
   y="0px"
   viewBox="0 0 512 512"
   style="enable-background:new 0 0 512 512;"
   xml:space="preserve"
   sodipodi:docname="knowprocess-icon-greyscale.svg"
   inkscape:version="0.92.2 (5c3e80d, 2017-08-06)"><metadata
     id="metadata1011"><rdf:RDF><cc:Work
         rdf:about=""><dc:format>image/svg+xml</dc:format><dc:type
           rdf:resource="http://purl.org/dc/dcmitype/StillImage" /><dc:title></dc:title></cc:Work></rdf:RDF></metadata><defs
     id="defs1009"><filter
       style="color-interpolation-filters:sRGB;"
       inkscape:label="Greyscale"
       id="filter838"><feColorMatrix
         values="0.21 0.72 0.072 0 0 0.21 0.72 0.072 0 0 0.21 0.72 0.072 0 0 0 0 0 1 0 "
         id="feColorMatrix836" /></filter><filter
       style="color-interpolation-filters:sRGB;"
       inkscape:label="Greyscale"
       id="filter842"><feColorMatrix
         values="0.21 0.72 0.072 0 0 0.21 0.72 0.072 0 0 0.21 0.72 0.072 0 0 0 0 0 1 0 "
         id="feColorMatrix840" /></filter><filter
       style="color-interpolation-filters:sRGB;"
       inkscape:label="Greyscale"
       id="filter846"><feColorMatrix
         values="0.21 0.72 0.072 0 0 0.21 0.72 0.072 0 0 0.21 0.72 0.072 0 0 0 0 0 1 0 "
         id="feColorMatrix844" /></filter><filter
       style="color-interpolation-filters:sRGB;"
       inkscape:label="Greyscale"
       id="filter850"><feColorMatrix
         values="0.21 0.72 0.072 0 0 0.21 0.72 0.072 0 0 0.21 0.72 0.072 0 0 0 0 0 1 0 "
         id="feColorMatrix848" /></filter><filter
       style="color-interpolation-filters:sRGB;"
       inkscape:label="Greyscale"
       id="filter854"><feColorMatrix
         values="0.21 0.72 0.072 0 0 0.21 0.72 0.072 0 0 0.21 0.72 0.072 0 0 0 0 0 1 0 "
         id="feColorMatrix852" /></filter><filter
       style="color-interpolation-filters:sRGB;"
       inkscape:label="Greyscale"
       id="filter858"><feColorMatrix
         values="0.21 0.72 0.072 0 0 0.21 0.72 0.072 0 0 0.21 0.72 0.072 0 0 0 0 0 1 0 "
         id="feColorMatrix856" /></filter><filter
       style="color-interpolation-filters:sRGB;"
       inkscape:label="Greyscale"
       id="filter862"><feColorMatrix
         values="0.21 0.72 0.072 0 0 0.21 0.72 0.072 0 0 0.21 0.72 0.072 0 0 0 0 0 1 0 "
         id="feColorMatrix860" /></filter><filter
       style="color-interpolation-filters:sRGB;"
       inkscape:label="Greyscale"
       id="filter866"><feColorMatrix
         values="0.21 0.72 0.072 0 0 0.21 0.72 0.072 0 0 0.21 0.72 0.072 0 0 0 0 0 1 0 "
         id="feColorMatrix864" /></filter><filter
       style="color-interpolation-filters:sRGB;"
       inkscape:label="Greyscale"
       id="filter870"><feColorMatrix
         values="0.21 0.72 0.072 0 0 0.21 0.72 0.072 0 0 0.21 0.72 0.072 0 0 0 0 0 1 0 "
         id="feColorMatrix868" /></filter><filter
       style="color-interpolation-filters:sRGB;"
       inkscape:label="Greyscale"
       id="filter874"><feColorMatrix
         values="0.21 0.72 0.072 0 0 0.21 0.72 0.072 0 0 0.21 0.72 0.072 0 0 0 0 0 1 0 "
         id="feColorMatrix872" /></filter><filter
       style="color-interpolation-filters:sRGB;"
       inkscape:label="Greyscale"
       id="filter878"><feColorMatrix
         values="0.21 0.72 0.072 0 0 0.21 0.72 0.072 0 0 0.21 0.72 0.072 0 0 0 0 0 1 0 "
         id="feColorMatrix876" /></filter><filter
       style="color-interpolation-filters:sRGB;"
       inkscape:label="Greyscale"
       id="filter882"><feColorMatrix
         values="0.21 0.72 0.072 0 0 0.21 0.72 0.072 0 0 0.21 0.72 0.072 0 0 0 0 0 1 0 "
         id="feColorMatrix880" /></filter><filter
       style="color-interpolation-filters:sRGB;"
       inkscape:label="Greyscale"
       id="filter886"><feColorMatrix
         values="0.21 0.72 0.072 0 0 0.21 0.72 0.072 0 0 0.21 0.72 0.072 0 0 0 0 0 1 0 "
         id="feColorMatrix884" /></filter><filter
       style="color-interpolation-filters:sRGB;"
       inkscape:label="Greyscale"
       id="filter890"><feColorMatrix
         values="0.21 0.72 0.072 0 0 0.21 0.72 0.072 0 0 0.21 0.72 0.072 0 0 0 0 0 1 0 "
         id="feColorMatrix888" /></filter><filter
       style="color-interpolation-filters:sRGB;"
       inkscape:label="Greyscale"
       id="filter894"><feColorMatrix
         values="0.21 0.72 0.072 0 0 0.21 0.72 0.072 0 0 0.21 0.72 0.072 0 0 0 0 0 1 0 "
         id="feColorMatrix892" /></filter><filter
       style="color-interpolation-filters:sRGB;"
       inkscape:label="Greyscale"
       id="filter898"><feColorMatrix
         values="0.21 0.72 0.072 0 0 0.21 0.72 0.072 0 0 0.21 0.72 0.072 0 0 0 0 0 1 0 "
         id="feColorMatrix896" /></filter><filter
       style="color-interpolation-filters:sRGB;"
       inkscape:label="Greyscale"
       id="filter902"><feColorMatrix
         values="0.21 0.72 0.072 0 0 0.21 0.72 0.072 0 0 0.21 0.72 0.072 0 0 0 0 0 1 0 "
         id="feColorMatrix900" /></filter><filter
       style="color-interpolation-filters:sRGB;"
       inkscape:label="Greyscale"
       id="filter906"><feColorMatrix
         values="0.21 0.72 0.072 0 0 0.21 0.72 0.072 0 0 0.21 0.72 0.072 0 0 0 0 0 1 0 "
         id="feColorMatrix904" /></filter><filter
       style="color-interpolation-filters:sRGB;"
       inkscape:label="Greyscale"
       id="filter910"><feColorMatrix
         values="0.21 0.72 0.072 0 0 0.21 0.72 0.072 0 0 0.21 0.72 0.072 0 0 0 0 0 1 0 "
         id="feColorMatrix908" /></filter><filter
       style="color-interpolation-filters:sRGB;"
       inkscape:label="Greyscale"
       id="filter914"><feColorMatrix
         values="0.21 0.72 0.072 0 0 0.21 0.72 0.072 0 0 0.21 0.72 0.072 0 0 0 0 0 1 0 "
         id="feColorMatrix912" /></filter><filter
       style="color-interpolation-filters:sRGB;"
       inkscape:label="Greyscale"
       id="filter918"><feColorMatrix
         values="0.21 0.72 0.072 0 0 0.21 0.72 0.072 0 0 0.21 0.72 0.072 0 0 0 0 0 1 0 "
         id="feColorMatrix916" /></filter><filter
       style="color-interpolation-filters:sRGB;"
       inkscape:label="Greyscale"
       id="filter922"><feColorMatrix
         values="0.21 0.72 0.072 0 0 0.21 0.72 0.072 0 0 0.21 0.72 0.072 0 0 0 0 0 1 0 "
         id="feColorMatrix920" /></filter><filter
       style="color-interpolation-filters:sRGB;"
       inkscape:label="Greyscale"
       id="filter926"><feColorMatrix
         values="0.21 0.72 0.072 0 0 0.21 0.72 0.072 0 0 0.21 0.72 0.072 0 0 0 0 0 1 0 "
         id="feColorMatrix924" /></filter><filter
       style="color-interpolation-filters:sRGB;"
       inkscape:label="Greyscale"
       id="filter930"><feColorMatrix
         values="0.21 0.72 0.072 0 0 0.21 0.72 0.072 0 0 0.21 0.72 0.072 0 0 0 0 0 1 0 "
         id="feColorMatrix928" /></filter></defs><sodipodi:namedview
     pagecolor="#ffffff"
     bordercolor="#666666"
     borderopacity="1"
     objecttolerance="10"
     gridtolerance="10"
     guidetolerance="10"
     inkscape:pageopacity="0"
     inkscape:pageshadow="2"
     inkscape:window-width="1920"
     inkscape:window-height="1025"
     id="namedview1007"
     showgrid="false"
     inkscape:zoom="5.1542969"
     inkscape:cx="219.62258"
     inkscape:cy="256"
     inkscape:window-x="0"
     inkscape:window-y="27"
     inkscape:window-maximized="1"
     inkscape:current-layer="Layer_1" /><path
     style="fill:#bbd3d3;filter:url(#filter838)"
     d="m 399.473,232.493 v 47.014 l -30.067,2.791 c -2.948,12.716 -8.001,24.644 -14.752,35.39 l 19.31,23.259 -33.139,33.128 -23.304,-19.355 c -10.758,6.707 -22.674,11.714 -35.379,14.64 l -2.791,30.112 h -46.856 l -2.802,-30.202 c -12.671,-2.959 -24.542,-7.989 -35.255,-14.719 l -23.383,19.411 -33.128,-33.139 19.456,-23.428 c -6.684,-10.713 -11.68,-22.584 -14.606,-35.244 L 112.53,279.349 V 232.65 l 30.247,-2.802 c 2.926,-12.659 7.922,-24.531 14.606,-35.244 l -19.456,-23.428 33.128,-33.139 23.383,19.411 c 10.713,-6.729 22.584,-11.759 35.255,-14.719 l 2.802,-30.202 h 46.856 l 2.791,30.112 c 12.704,2.926 24.621,7.933 35.379,14.64 l 23.304,-19.355 33.139,33.128 -19.31,23.259 c 6.752,10.746 11.804,22.674 14.752,35.39 z M 324.642,256 c 0,-37.852 -30.79,-68.642 -68.642,-68.642 -37.852,0 -68.642,30.79 -68.642,68.642 0,37.852 30.79,68.642 68.642,68.642 37.852,0 68.642,-30.79 68.642,-68.642 z"
     id="path948"
     inkscape:connector-curvature="0" /><path
     style="fill:#779c95;filter:url(#filter842)"
     d="M 256,337.582 244.747,320.703 256,303.824 c 26.365,0 47.824,-21.459 47.824,-47.824 0,-26.365 -21.459,-47.824 -47.824,-47.824 L 244.747,191.297 256,174.418 c 44.988,0 81.582,36.594 81.582,81.582 0,44.988 -36.594,81.582 -81.582,81.582 z"
     id="path950"
     inkscape:connector-curvature="0" /><path
     style="fill:#9bbeb8;filter:url(#filter846)"
     d="m 256,303.824 v 33.758 c -44.988,0 -81.582,-36.594 -81.582,-81.582 0,-44.988 36.594,-81.582 81.582,-81.582 v 33.758 c -26.365,0 -47.824,21.459 -47.824,47.824 0,26.365 21.459,47.824 47.824,47.824 z"
     id="path952"
     inkscape:connector-curvature="0" /><path
     style="fill:#cc86c4;filter:url(#filter850)"
     d="m 512,256 h -67.516 c 0,-51.965 -21.133,-99.092 -55.273,-133.21 l 0.068,-0.068 -4.621,-40.389 52.365,-7.345 C 485.20438,123.56381 512,183.45594 512,256 Z"
     id="path962"
     inkscape:connector-curvature="0"
     sodipodi:nodetypes="ccccccc" /><g
     id="g960"
     style="filter:url(#filter854)"><path
       style="fill:#a86994"
       d="m 444.484,256 c 33.2249,-0.34393 34.29097,0.12784 67.516,0 0,30.416 -6.87097,70.903 -19.49,97.966 l -55.622,0.045 -6.752,-25.881 c 9.25,-22.224 14.348,-46.597 14.348,-72.13 z"
       id="path956"
       inkscape:connector-curvature="0"
       sodipodi:nodetypes="cccccc" /></g><path
     style="fill:#ecd8e6;filter:url(#filter858)"
     d="m 389.278,122.722 -0.068,0.068 C 355.092,88.649 307.965,67.516 256,67.516 c -51.965,0 -99.092,21.133 -133.21,55.273 L 122.722,122.721 77.08,122.085 75,74.988 C 121.316,28.649 185.322,0 256,0 c 0.957,0 1.913,0.011 2.869,0.023 65.851,0.956 136.69791,31.81767 178.142,74.966 z"
     id="path966"
     inkscape:connector-curvature="0"
     sodipodi:nodetypes="ccsccccsccc" /><path
     style="fill:#d0c6de;filter:url(#filter862)"
     d="m 122.722,122.722 0.068,0.068 C 88.649,156.908 67.516,204.035 67.516,256 L 33.758,289.758 0,256 C 0,185.31 28.649,121.305 74.988,74.988 c 0.012,0 47.734,47.734 47.734,47.734 z"
     id="path968"
     inkscape:connector-curvature="0" /><path
     style="fill:#a86994;filter:url(#filter866)"
     d="M 256,444.484 289.758,478.242 256,512 C 114.62,512 0,397.38 0,256 h 67.516 c 0,103.93 84.554,188.484 188.484,188.484 z"
     id="path970"
     inkscape:connector-curvature="0" /><path
     style="fill:#9e3472;filter:url(#filter870)"
     d="m 256,512 v -67.516 c 78.398,0 145.768,-48.105 174.136,-116.353 l 62.43,25.858 C 458.54662,442.99563 353.966,510.594 258.869,511.978 257.913,511.989 256.957,512 256,512 Z"
     id="path974"
     inkscape:connector-curvature="0"
     sodipodi:nodetypes="cccccc" /><g
     id="g976"
     style="filter:url(#filter874)" /><g
     id="g978"
     style="filter:url(#filter878)" /><g
     id="g980"
     style="filter:url(#filter882)" /><g
     id="g982"
     style="filter:url(#filter886)" /><g
     id="g984"
     style="filter:url(#filter890)" /><g
     id="g986"
     style="filter:url(#filter894)" /><g
     id="g988"
     style="filter:url(#filter898)" /><g
     id="g990"
     style="filter:url(#filter902)" /><g
     id="g992"
     style="filter:url(#filter906)" /><g
     id="g994"
     style="filter:url(#filter910)" /><g
     id="g996"
     style="filter:url(#filter914)" /><g
     id="g998"
     style="filter:url(#filter918)" /><g
     id="g1000"
     style="filter:url(#filter922)" /><g
     id="g1002"
     style="filter:url(#filter926)" /><g
     id="g1004"
     style="filter:url(#filter930)" /></svg>